<svg xmlns="http://www.w3.org/2000/svg" viewBox="0 0 512 512"><g data-name="Internet Universe"><path d="M52.625 480.708a21.264 21.264 0 0 1-15.083-6.25c-17.188-17.166-29.355-53.646 10.312-129.896 27.25-52.416 73-112.041 128.833-167.875S292.147 75.105 344.563 47.855c76.23-39.646 112.709-27.5 129.896-10.312a21.331 21.331 0 0 1-30.166 30.166c-5.354-5.354-29.042-8.541-80.042 18C315.583 111 259.687 154.042 206.854 206.854 154.042 259.687 111 315.584 85.708 364.25c-26.541 51.02-23.375 74.667-18 80.042a21.333 21.333 0 0 1-15.083 36.416z" style="fill:#c175ff"/><path d="M256 469.333a21.333 21.333 0 0 1 0-42.666c26.104 0 64-66.48 64-170.667S282.104 85.333 256 85.333a21.333 21.333 0 1 1 0-42.666c60.813 0 106.667 91.708 106.667 213.333S316.813 469.333 256 469.333z" style="fill:#ffbe00"/><path d="M339.23 234.875a21.337 21.337 0 0 1-21.21-19.188c-2.832-28.083-8.645-54.416-16.832-76.166a21.328 21.328 0 0 1 39.916-15.042c9.48 25.167 16.188 55.23 19.375 86.917a21.346 21.346 0 0 1-19.083 23.375c-.73.062-1.459.104-2.167.104z" style="fill:#ffa300"/><path d="M256 362.667c-121.625 0-213.333-45.854-213.333-106.667h42.666c0 26.104 66.48 64 170.667 64s170.667-37.896 170.667-64h42.666c0 60.813-91.708 106.667-213.333 106.667z" style="fill:gold"/><path d="M213.563 360.583c-.709 0-1.438-.041-2.167-.104a370.826 370.826 0 0 1-68.667-13.229 21.336 21.336 0 1 1 12.25-40.875 327.561 327.561 0 0 0 60.708 11.646 21.335 21.335 0 0 1-2.125 42.562zM448 277.333A21.321 21.321 0 0 1 426.667 256c0-26.104-66.48-64-170.667-64S85.333 229.896 85.333 256a21.333 21.333 0 0 1-42.666 0c0-60.813 91.708-106.667 213.333-106.667S469.333 195.188 469.333 256A21.321 21.321 0 0 1 448 277.333z" style="fill:#ffbe00"/><path d="M256 469.333c-60.813 0-106.667-91.708-106.667-213.333S195.188 42.667 256 42.667v42.666c-26.104 0-64 66.48-64 170.667s37.896 170.667 64 170.667z" style="fill:gold"/><path d="M256 469.333c-117.625 0-213.333-95.708-213.333-213.333S138.375 42.667 256 42.667 469.333 138.375 469.333 256 373.625 469.333 256 469.333zm0-384c-94.104 0-170.667 76.563-170.667 170.667S161.896 426.667 256 426.667 426.667 350.104 426.667 256 350.104 85.333 256 85.333z" style="fill:gold"/><path d="M81.354 490.625c-21.375 0-35.083-7.438-43.812-16.167a21.331 21.331 0 0 1 30.166-30.166c5.375 5.375 29.021 8.541 80.042-18C196.417 401 252.313 357.958 305.146 305.146 357.958 252.312 401 196.416 426.292 147.75c26.541-51.02 23.375-74.667 18-80.042a21.331 21.331 0 1 1 30.166-30.166c17.188 17.166 29.354 53.645-10.312 129.895-27.25 52.417-73 112.042-128.834 167.875S219.855 436.897 167.438 464.147c-37.5 19.5-65.395 26.479-86.083 26.479z" style="fill:#d39cff"/><path d="M178.25 455.063a21.334 21.334 0 0 1-10.896-39.688c43.625-25.875 92.563-65.02 137.792-110.23a813.198 813.198 0 0 0 79.333-91.52 21.334 21.334 0 0 1 34.334 25.333 854.614 854.614 0 0 1-83.5 96.354c-48.355 48.334-98.917 88.709-146.209 116.771a21.164 21.164 0 0 1-10.854 2.98z" style="fill:#dfb7ff"/></g></svg>