<svg xmlns="http://www.w3.org/2000/svg" width="64" height="64" xml:space="preserve"><path fill-rule="evenodd" clip-rule="evenodd" fill="#7BB32E" d="M52 34a2 2 0 1 1-3.999.001A2 2 0 0 1 52 34zm-12 0a2 2 0 1 1-3.999.001A2 2 0 0 1 40 34zM14 18.499a2.5 2.5 0 1 1 5.001.003A2.5 2.5 0 0 1 14 18.5zm15.001 0a2.5 2.5 0 1 1 4.999 0 2.5 2.5 0 0 1-4.999 0zM58.606 50.27l.923 3.463a3.496 3.496 0 0 1-2.506 4.15 3.504 3.504 0 0 1-2.968-.561c-.002-.002 0 .004-.002 0l-3.341-2.385A21.924 21.924 0 0 1 44 56c-4.896 0-9.36-1.604-12.829-4.236A1.99 1.99 0 0 1 30.095 50a2 2 0 0 1 2-2c.468 0 .892.166 1.231.436l.015-.016C36.172 50.639 39.9 52 44 52a17.86 17.86 0 0 0 4.463-.584c.216-.037.478-.098.854-.217a4.335 4.335 0 0 1 3.84.625l2.345 1.676-.702-2.627a3.538 3.538 0 0 1 1.03-3.465c.037-.033.061-.07.092-.104C58.448 44.828 60 41.578 60 38c0-7.73-7.164-14-16-14s-16 6.27-16 14c0 .506.034 1.006.095 1.498.237 3.229-2.124 6.08-5.363 6.41-.177.016-.349.016-.521.02a27.232 27.232 0 0 1-6.55-1.256l-3.714 2.65c-.002.004 0-.002-.002 0a3.502 3.502 0 0 1-2.967.561 3.496 3.496 0 0 1-2.507-4.15l.953-3.57C2.858 36.34 0 30.968 0 25.001 0 13.401 10.744 4 24 4c7.894 0 14.875 3.353 19.248 8.499.42.369.688.899.688 1.501 0 1.105-.894 2-2 2-.63 0-1.183-.296-1.551-.752l-.01.01C36.759 10.873 30.778 8 24 8 12.955 8 4 15.612 4 25.001c0 4.87 2.429 9.245 6.293 12.341.022.023.029.045.053.064a2.842 2.842 0 0 1 1.001 2.916L10.5 43.5l3.445-2.461a2.734 2.734 0 0 1 2.419-.33c.034.014.063.006.097.016 1.595.555 3.29.947 5.06 1.137a2.491 2.491 0 0 0 2.538-2.641c-.002-.039.01-.055.017-.082-.03-.381-.076-.754-.076-1.139 0-9.941 8.955-18 20-18s20 8.059 20 18c0 4.746-2.059 9.051-5.394 12.27z"/></svg>